<mxfile host="65bd71144e">
    <diagram id="Zphku5AM_jrOAezdSDCR" name="第 1 页">
        <mxGraphModel dx="1165" dy="660" grid="1" gridSize="10" guides="1" tooltips="1" connect="1" arrows="1" fold="1" page="1" pageScale="1" pageWidth="827" pageHeight="1169" math="0" shadow="0">
            <root>
                <mxCell id="0"/>
                <mxCell id="1" parent="0"/>
                <mxCell id="45" value="" style="rounded=0;whiteSpace=wrap;html=1;dashed=1;" vertex="1" parent="1">
                    <mxGeometry x="540" y="450" width="430" height="250" as="geometry"/>
                </mxCell>
                <mxCell id="24" value="" style="rounded=0;whiteSpace=wrap;html=1;dashed=1;fillColor=#f8cecc;strokeColor=#b85450;" parent="1" vertex="1">
                    <mxGeometry x="395" y="325" width="130" height="80" as="geometry"/>
                </mxCell>
                <mxCell id="4" value="" style="edgeStyle=none;html=1;fontSize=18;fontStyle=1;startArrow=classic;startFill=1;endArrow=none;endFill=0;" parent="1" source="2" target="3" edge="1">
                    <mxGeometry relative="1" as="geometry"/>
                </mxCell>
                <mxCell id="2" value="C0" style="rounded=1;whiteSpace=wrap;html=1;fillColor=#fff2cc;strokeColor=#d6b656;fontSize=18;fontStyle=1" parent="1" vertex="1">
                    <mxGeometry x="50" y="340" width="100" height="50" as="geometry"/>
                </mxCell>
                <mxCell id="6" value="" style="edgeStyle=none;html=1;fontSize=18;fontStyle=1;startArrow=classic;startFill=1;endArrow=none;endFill=0;" parent="1" source="3" target="5" edge="1">
                    <mxGeometry relative="1" as="geometry"/>
                </mxCell>
                <mxCell id="3" value="C1" style="rounded=1;whiteSpace=wrap;html=1;fillColor=#fff2cc;strokeColor=#d6b656;fontSize=18;fontStyle=1" parent="1" vertex="1">
                    <mxGeometry x="230" y="340" width="100" height="50" as="geometry"/>
                </mxCell>
                <mxCell id="8" value="" style="edgeStyle=none;html=1;fontSize=18;fontStyle=1;startArrow=classic;startFill=1;endArrow=none;endFill=0;" parent="1" target="7" edge="1">
                    <mxGeometry relative="1" as="geometry">
                        <mxPoint x="650" y="338" as="sourcePoint"/>
                    </mxGeometry>
                </mxCell>
                <mxCell id="13" value="" style="edgeStyle=none;html=1;exitX=1;exitY=0.75;exitDx=0;exitDy=0;entryX=0.5;entryY=0;entryDx=0;entryDy=0;startArrow=classic;startFill=1;endArrow=none;endFill=0;dashed=1;" parent="1" source="5" target="12" edge="1">
                    <mxGeometry relative="1" as="geometry"/>
                </mxCell>
                <mxCell id="21" value="" style="edgeStyle=none;html=1;startArrow=classic;startFill=1;endArrow=none;endFill=0;" parent="1" source="5" target="20" edge="1">
                    <mxGeometry relative="1" as="geometry"/>
                </mxCell>
                <mxCell id="5" value="C2" style="rounded=1;whiteSpace=wrap;html=1;fillColor=#fff2cc;strokeColor=#d6b656;fontSize=18;fontStyle=1" parent="1" vertex="1">
                    <mxGeometry x="410" y="340" width="100" height="50" as="geometry"/>
                </mxCell>
                <mxCell id="7" value="master" style="rounded=1;whiteSpace=wrap;html=1;fillColor=#e51400;strokeColor=#B20000;fontColor=#ffffff;fontSize=18;fontStyle=1" parent="1" vertex="1">
                    <mxGeometry x="600" y="241" width="100" height="50" as="geometry"/>
                </mxCell>
                <mxCell id="11" value="feature" style="rounded=1;whiteSpace=wrap;html=1;fillColor=#e51400;strokeColor=#B20000;fontColor=#ffffff;fontSize=18;fontStyle=1" parent="1" vertex="1">
                    <mxGeometry x="780" y="604" width="100" height="50" as="geometry"/>
                </mxCell>
                <mxCell id="23" value="" style="edgeStyle=none;html=1;startArrow=classic;startFill=1;endArrow=none;endFill=0;dashed=1;" parent="1" source="12" target="22" edge="1">
                    <mxGeometry relative="1" as="geometry"/>
                </mxCell>
                <mxCell id="12" value="C3" style="rounded=1;whiteSpace=wrap;html=1;fillColor=#fff2cc;strokeColor=#d6b656;fontSize=18;fontStyle=1" parent="1" vertex="1">
                    <mxGeometry x="599" y="484" width="100" height="50" as="geometry"/>
                </mxCell>
                <mxCell id="19" value="" style="endArrow=classic;html=1;exitX=0.5;exitY=0;exitDx=0;exitDy=0;entryX=0.5;entryY=1;entryDx=0;entryDy=0;dashed=1;" parent="1" edge="1">
                    <mxGeometry width="50" height="50" relative="1" as="geometry">
                        <mxPoint x="831" y="603" as="sourcePoint"/>
                        <mxPoint x="831" y="535" as="targetPoint"/>
                    </mxGeometry>
                </mxCell>
                <mxCell id="42" value="" style="edgeStyle=none;html=1;startArrow=classic;startFill=1;endArrow=none;endFill=0;" edge="1" parent="1" source="20">
                    <mxGeometry relative="1" as="geometry">
                        <mxPoint x="780" y="365" as="targetPoint"/>
                    </mxGeometry>
                </mxCell>
                <mxCell id="20" value="C4" style="rounded=1;whiteSpace=wrap;html=1;fillColor=#fff2cc;strokeColor=#d6b656;fontSize=18;fontStyle=1" parent="1" vertex="1">
                    <mxGeometry x="600" y="340" width="100" height="50" as="geometry"/>
                </mxCell>
                <mxCell id="22" value="C5" style="rounded=1;whiteSpace=wrap;html=1;fillColor=#fff2cc;strokeColor=#d6b656;fontSize=18;fontStyle=1" parent="1" vertex="1">
                    <mxGeometry x="779" y="484" width="100" height="50" as="geometry"/>
                </mxCell>
                <mxCell id="37" value="" style="edgeStyle=none;html=1;startArrow=classic;startFill=1;endArrow=none;endFill=0;" edge="1" parent="1" source="38" target="40">
                    <mxGeometry relative="1" as="geometry"/>
                </mxCell>
                <mxCell id="38" value="C3'" style="rounded=1;whiteSpace=wrap;html=1;fillColor=#fff2cc;strokeColor=#d6b656;fontSize=18;fontStyle=1" vertex="1" parent="1">
                    <mxGeometry x="780" y="340" width="100" height="50" as="geometry"/>
                </mxCell>
                <mxCell id="44" value="" style="edgeStyle=none;html=1;startArrow=classic;startFill=1;endArrow=none;endFill=0;" edge="1" parent="1" source="40" target="43">
                    <mxGeometry relative="1" as="geometry"/>
                </mxCell>
                <mxCell id="40" value="C5'" style="rounded=1;whiteSpace=wrap;html=1;fillColor=#fff2cc;strokeColor=#d6b656;fontSize=18;fontStyle=1" vertex="1" parent="1">
                    <mxGeometry x="960" y="340" width="100" height="50" as="geometry"/>
                </mxCell>
                <mxCell id="43" value="feature" style="rounded=1;whiteSpace=wrap;html=1;fillColor=#e51400;strokeColor=#B20000;fontColor=#ffffff;fontSize=18;fontStyle=1" vertex="1" parent="1">
                    <mxGeometry x="961" y="241" width="100" height="50" as="geometry"/>
                </mxCell>
            </root>
        </mxGraphModel>
    </diagram>
</mxfile>